<svg width="168" height="139" viewBox="0 0 168 139" fill="none" xmlns="http://www.w3.org/2000/svg">
<circle cx="62.5" cy="50.5" r="32.5" fill="#36CFFF"/>
<ellipse cx="106.5" cy="58" rx="28.5" ry="29" fill="#36CFFF"/>
<rect y="61" width="168" height="59" rx="29.5" fill="#36CFFF"/>
<path d="M100.053 85.3945V83.7202C100.053 79.0919 100.434 75.4028 101.196 72.6531C101.986 69.9033 103.129 67.698 104.626 66.0373C106.124 64.3493 107.948 62.8111 110.099 61.4226C111.814 60.3336 113.339 59.2309 114.673 58.1147C116.034 56.9712 117.109 55.7461 117.899 54.4393C118.688 53.1325 119.083 51.6487 119.083 49.9879C119.083 48.3816 118.702 46.9659 117.94 45.7408C117.177 44.5156 116.129 43.5763 114.795 42.9229C113.488 42.2423 112.032 41.902 110.425 41.902C108.819 41.902 107.308 42.2695 105.892 43.0046C104.504 43.7397 103.36 44.7879 102.462 46.1491C101.591 47.4832 101.142 49.1031 101.114 51.0089H82.3288C82.4105 45.2915 83.7309 40.6088 86.2901 36.9606C88.8765 33.3124 92.2933 30.6171 96.5405 28.8746C100.788 27.105 105.47 26.2202 110.589 26.2202C116.197 26.2202 121.179 27.0914 125.536 28.8338C129.919 30.5762 133.363 33.149 135.868 36.5522C138.372 39.9554 139.625 44.1209 139.625 49.0487C139.625 52.2885 139.08 55.1471 137.991 57.6246C136.902 60.1022 135.377 62.2938 133.417 64.1996C131.484 66.0781 129.211 67.7933 126.597 69.3452C124.555 70.5431 122.854 71.7955 121.493 73.1023C120.159 74.4091 119.151 75.9065 118.471 77.5945C117.79 79.2552 117.45 81.2971 117.45 83.7202V85.3945H100.053ZM109.078 112.184C106.137 112.184 103.619 111.15 101.523 109.081C99.4536 107.011 98.4326 104.507 98.4599 101.566C98.4326 98.6805 99.4536 96.2166 101.523 94.1747C103.619 92.1056 106.137 91.071 109.078 91.071C111.882 91.071 114.346 92.1056 116.469 94.1747C118.593 96.2166 119.668 98.6805 119.696 101.566C119.668 103.527 119.151 105.31 118.144 106.916C117.164 108.522 115.871 109.802 114.264 110.755C112.685 111.708 110.956 112.184 109.078 112.184Z" fill="white"/>
</svg>
